<?xml version="1.0" encoding="UTF-8" standalone="no"?>
<!-- Created with Inkscape (http://www.inkscape.org/) -->

<svg
   width="512mm"
   height="512mm"
   viewBox="0 0 512 512"
   version="1.1"
   id="svg5992"
   inkscape:version="1.2 (dc2aedaf03, 2022-05-15)"
   sodipodi:docname="GigaElkMobileOriginal.svg"
   xmlns:inkscape="http://www.inkscape.org/namespaces/inkscape"
   xmlns:sodipodi="http://sodipodi.sourceforge.net/DTD/sodipodi-0.dtd"
   xmlns="http://www.w3.org/2000/svg"
   xmlns:svg="http://www.w3.org/2000/svg">
  <sodipodi:namedview
     id="namedview5994"
     pagecolor="#ffffff"
     bordercolor="#000000"
     borderopacity="0.25"
     inkscape:showpageshadow="2"
     inkscape:pageopacity="0.0"
     inkscape:pagecheckerboard="0"
     inkscape:deskcolor="#d1d1d1"
     inkscape:document-units="mm"
     showgrid="true"
     inkscape:zoom="0.45014485"
     inkscape:cx="976.35238"
     inkscape:cy="899.71038"
     inkscape:window-width="1920"
     inkscape:window-height="1009"
     inkscape:window-x="-8"
     inkscape:window-y="-8"
     inkscape:window-maximized="1"
     inkscape:current-layer="layer1">
    <inkscape:grid
       type="xygrid"
       id="grid5996" />
  </sodipodi:namedview>
  <defs
     id="defs5989">
    <rect
       x="1480"
       y="20"
       width="2280"
       height="740"
       id="rect5108" />
  </defs>
  <g
     inkscape:label="Antlers"
     inkscape:groupmode="layer"
     id="layer1">
    <g
       id="g12"
       transform="matrix(0.04034195,0,0,-0.06003176,-146.46068,772.64532)"
       style="fill:#3d0859;fill-opacity:1">
      <path
         d="m 9171.32,7988.5 c -112.05,-17.5 -222.05,37.5 -278.05,136.1 -58.49,103 -131.1,202.5 -213.6,256.9 -182.15,120 -206.14,394.8 -197.61,550.2 1.04,19 -24.79,25.9 -33.39,8.9 -61.03,-120.5 -144.9,-385.5 79.74,-683.3 78.62,-104.3 142.82,-218.7 198.89,-336.6 9.22,-19.4 -12.4,-39 -30.51,-27.4 -187.6,119.4 -750.58,471 -1052.21,586.2 -365.52,139.6 -1315.88,1216.2 -1282.65,1555.1 33.23,339 219.32,1129.8 491.79,1528.6 250.27,366.2 724.78,525 965.26,1166.4 12.15,32.4 -30.59,56.8 -51.67,29.4 -153.57,-199.9 -459.57,-550.6 -863.63,-776.7 -145.63,-81.5 -321.06,40.3 -290.06,204.3 8.34,44.1 27.67,95.1 62.17,153.9 17.14,29.3 -17.89,60.5 -44.65,39.7 -101.42,-78.8 -225.79,-227.1 -206.32,-472.9 18.55,-234.3 -18.54,-469.7 -91.11,-693.3 l -220.43,-679 c -22.63,-69.7 -112.35,-90.6 -161.92,-36.6 -124.33,135.4 -284.93,425.7 -151.66,961 63.21,253.9 111.78,511.2 135.23,771.8 13.18,146.4 30.6,300.1 52.45,413.7 5.9,30.7 -34.75,46.9 -51.47,20.5 -114.12,-180 -308.23,-569.9 -442.81,-1285.2 -5.63,-29.9 -45.63,-36.4 -59.83,-9.5 -35.34,67.1 -79.98,175.7 -87.96,307.1 -1.55,25.6 -38.1,28.8 -42.96,3.6 -53.36,-276.7 -42.59,-883.3 640.9,-1819.6 0,0 496.18,-739.9 745.33,-1071.4 38.47,-51.2 -11.47,-121.9 -72.43,-102.3 C 6281.93,8795.5 5604.99,9122 5229,10061 c -12.8,31.9 -60.37,21 -58.61,-13.3 20.74,-402.5 231.62,-1420.9 1796.92,-1767.7 169.49,-37.6 335.24,-90.4 494.17,-160.2 279,-122.7 711.69,-320.1 1001.15,-486.8 101.98,-58.8 175.47,-162 182.09,-279.5 2.35,-41.8 16.07,-75.8 42.28,-97.9 91.31,-76.9 298.99,19.6 463.88,215.4 164.89,195.8 224.54,416.9 133.23,493.8 -28.11,23.7 -67.26,30.8 -112.79,23.7"
         style="fill:#3d0859;fill-opacity:1;fill-rule:nonzero;stroke:none"
         id="path14" />
      <path
         d="m 14771,10061 c -376,-939 -1052.9,-1265.5 -1387.1,-1372.9 -61,-19.6 -110.9,51.1 -72.5,102.3 249.2,331.5 745.4,1071.4 745.4,1071.4 683.4,936.3 694.2,1542.9 640.8,1819.6 -4.8,25.2 -41.4,22 -42.9,-3.6 -8,-131.4 -52.6,-240 -88,-307.1 -14.2,-26.9 -54.2,-20.4 -59.8,9.5 -134.6,715.3 -328.7,1105.2 -442.8,1285.2 -16.7,26.4 -57.4,10.2 -51.5,-20.5 21.9,-113.6 39.3,-267.3 52.5,-413.7 23.4,-260.6 72,-517.9 135.2,-771.8 133.3,-535.3 -27.3,-825.6 -151.7,-961 -49.5,-54 -139.3,-33.1 -161.9,36.6 l -220.4,679 c -72.6,223.6 -109.7,459 -91.1,693.3 19.4,245.8 -104.9,394.1 -206.3,472.9 -26.8,20.8 -61.8,-10.4 -44.7,-39.7 34.5,-58.8 53.8,-109.8 62.2,-153.9 31,-164 -144.5,-285.8 -290.1,-204.3 -404,226.1 -710,576.8 -863.6,776.7 -21.1,27.4 -63.8,3 -51.7,-29.4 240.5,-641.4 715,-800.2 965.3,-1166.4 272.5,-398.8 458.5,-1189.6 491.8,-1528.6 33.2,-338.9 -917.2,-1415.5 -1282.7,-1555.1 -301.6,-115.2 -864.6,-466.8 -1052.2,-586.2 -18.1,-11.6 -39.7,8 -30.5,27.4 56.1,117.9 120.3,232.3 198.9,336.6 224.6,297.8 140.8,562.8 79.7,683.3 -8.6,17 -34.4,10.1 -33.4,-8.9 8.6,-155.4 -15.4,-430.2 -197.6,-550.2 -82.5,-54.4 -155.1,-153.9 -213.6,-256.9 -56,-98.6 -166,-153.6 -278,-136.1 -45.6,7.1 -84.7,0 -112.8,-23.7 -91.3,-76.9 -31.7,-298 133.2,-493.8 164.9,-195.8 372.6,-292.3 463.9,-215.4 26.2,22.1 39.9,56.1 42.3,97.9 6.6,117.5 80.1,220.7 182.1,279.5 289.4,166.7 722.1,364.1 1001.1,486.8 158.9,69.8 324.7,122.6 494.2,160.2 1565.3,346.8 1776.2,1365.2 1796.9,1767.7 1.8,34.3 -45.8,45.2 -58.6,13.3"
         style="fill:#3d0859;fill-opacity:1;fill-rule:nonzero;stroke:none"
         id="path16" />
    </g>
  </g>
  <g
     inkscape:groupmode="layer"
     id="layer4"
     inkscape:label="Text" />
  <text
     xml:space="preserve"
     transform="matrix(0.36439582,0,0,0.34111914,-532.32611,292.73471)"
     id="text5106"
     style="font-style:normal;font-variant:normal;font-weight:normal;font-stretch:normal;font-size:653.333px;font-family:Onyx;-inkscape-font-specification:'Onyx, Normal';font-variant-ligatures:normal;font-variant-caps:normal;font-variant-numeric:normal;font-variant-east-asian:normal;white-space:pre;shape-inside:url(#rect5108);display:inline;fill:#c71c81;fill-opacity:1"
     inkscape:label="GigaElk"><tspan
       x="1480"
       y="626.27088"
       id="tspan6088">GIGAELK</tspan></text>
</svg>
